<svg viewBox="0 0 45 45" fill="none" xmlns="http://www.w3.org/2000/svg">
   <style>
      #vinyl{
         transform-origin: center;
         animation: rotate 6s infinite linear;
         }
         @keyframes rotate {
            0% {
               transform: rotate(0deg);
            }
            100% {
               transform: rotate(360deg);
            }
         }
   </style>
   <g>
      <path d="M45 22.5C45 10.0736 34.9264 0 22.5 0C10.0736 0 0 10.0736 0 22.5C0 34.9264 10.0736 45 22.5 45C34.9264 45 45 34.9264 45 22.5Z" fill="#697EC4"/>
      <path d="M22.5 40C32.165 40 40 32.165 40 22.5C40 12.835 32.165 5 22.5 5C12.835 5 5 12.835 5 22.5C5 32.165 12.835 40 22.5 40Z" fill="#4B4D53"/>
      <mask id="disco" style="mask-type:alpha" maskUnits="userSpaceOnUse" x="5" y="5" width="35" height="35">
         <path d="M22.5 40C32.165 40 40 32.165 40 22.5C40 12.835 32.165 5 22.5 5C12.835 5 5 12.835 5 22.5C5 32.165 12.835 40 22.5 40Z" fill="#4B4D53"/>
      </mask>
      <g id="vinyl" mask="url(#disco)">
         <path d="M0.82431 18.8308L21.0277 24.1837L23.2458 20.8468L11.3945 4.97156L0.82431 18.8308Z" fill="white" fill-opacity="0.22"/>
         <path d="M43.4214 26.3528L23.218 21L21 24.3368L32.8513 40.2121L43.4214 26.3528Z" fill="white" fill-opacity="0.22"/>
         <path d="M22.5 30.75C26.9183 30.75 30.5 27.1683 30.5 22.75C30.5 18.3317 26.9183 14.75 22.5 14.75C18.0817 14.75 14.5 18.3317 14.5 22.75C14.5 27.1683 18.0817 30.75 22.5 30.75Z" fill="#32373E"/>
         <path d="M22.5 26.75C24.7091 26.75 26.5 24.9591 26.5 22.75C26.5 20.5409 24.7091 18.75 22.5 18.75C20.2909 18.75 18.5 20.5409 18.5 22.75C18.5 24.9591 20.2909 26.75 22.5 26.75Z" fill="#EAEFF4"/>
      </g>
      <path d="M4.03417 23.0641C4.21342 26.0441 5.09458 28.9395 6.60583 31.5139C6.60583 31.5139 8.91977 34.8485 10.4027 36.1639C11.8856 37.4793 13.5694 38.5491 15.3902 39.3327C18.9026 40.8838 22.8067 41.319 26.5746 40.5795C27.0996 40.4764 27.6058 40.3545 28.1215 40.2139C28.848 40.0062 29.5617 39.7557 30.259 39.4639C31.7977 38.8274 33.2448 37.9889 34.5621 36.9702C34.6798 36.8885 34.7661 36.769 34.8066 36.6314C34.8471 36.4938 34.8393 36.3467 34.7845 36.2143C34.7298 36.0818 34.6314 35.972 34.5056 35.9032C34.3798 35.8344 34.2344 35.8106 34.0933 35.8358C27.6578 36.5906 21.1838 34.7806 16.0727 30.7978C10.9616 26.815 7.62461 20.9795 6.78395 14.5545C6.76595 14.4179 6.70417 14.2906 6.60789 14.192C6.51161 14.0934 6.3858 14.0287 6.24949 14.0075C6.11318 13.9863 5.97386 14.01 5.85217 14.0748C5.73048 14.1396 5.63308 14.2423 5.57458 14.367C4.38273 17.1042 3.85492 20.0843 4.03417 23.0641Z" fill="#91FFAD"/>
      <path d="M23.3685 40.6263C22.0841 39.3419 21.606 37.7294 22.3185 36.9981C23.031 36.2668 24.6716 36.7075 25.9653 37.9356C26.2081 38.1732 26.5094 38.3425 26.8386 38.4265C27.1678 38.5105 27.5133 38.506 27.8403 38.4138C28.9091 38.1231 30.3528 37.8231 30.6528 38.2638C30.7253 38.412 30.7575 38.5767 30.7459 38.7413C30.7344 38.906 30.6796 39.0646 30.5872 39.2013L30.3341 39.4263C29.6181 39.7243 28.8856 39.981 28.1403 40.195C27.6247 40.3356 27.1185 40.4575 26.5935 40.5606C25.665 40.7385 24.7251 40.8513 23.781 40.8981C23.6385 40.8153 23.5007 40.7244 23.3685 40.6263Z" fill="black"/>
      <path d="M23.3683 40.6266C23.1231 40.3846 22.9004 40.1211 22.7027 39.8391C23.3226 39.6157 23.9928 39.5721 24.6364 39.713C25.28 39.8539 25.8706 40.1739 26.3402 40.6359C25.4765 40.7971 24.6024 40.8973 23.7246 40.9359C23.6004 40.8391 23.4816 40.7359 23.3683 40.6266Z" fill="#EB459F"/>
      <path d="M9.0341 28.8608C9.03823 30.6531 9.64216 32.3923 10.7497 33.8015C12.0371 35.053 13.7078 35.8356 15.4935 36.0233C15.4803 34.2292 14.8626 32.492 13.7404 31.0921C12.4629 29.8463 10.8071 29.0614 9.0341 28.8608Z" fill="white"/>
      <path d="M13.7685 31.092C14.4961 31.9298 15.0049 32.9347 15.2497 34.017C15.1541 34.155 15.0293 34.2702 14.8841 34.3545C13.9466 34.8326 12.5966 33.9795 11.781 32.4795C11.5119 32.0354 11.3379 31.5403 11.2701 31.0255C11.2024 30.5108 11.2423 29.9875 11.3872 29.4889C12.2896 29.841 13.1028 30.3884 13.7685 31.092Z" fill="black"/>
   </g>
</svg>