<svg viewBox="0 0 76 76" fill="none" xmlns="http://www.w3.org/2000/svg">
<path d="M0 38C0 58.8998 16.9427 76 37.8425 76C58.7423 76 75.685 58.8998 75.685 38C75.685 17.1002 58.7423 0 37.8425 0C16.9427 0 0 17.1002 0 38Z" fill="#91D7E0"/>
<path d="M14.1863 32.3099C16.7594 32.3099 18.8453 30.2153 18.8453 27.6315C18.8453 25.0477 16.7594 22.9531 14.1863 22.9531C11.6132 22.9531 9.52734 25.0477 9.52734 27.6315C9.52734 30.2153 11.6132 32.3099 14.1863 32.3099Z" fill="black"/>
<path d="M61.3475 32.3099C63.9206 32.3099 66.0065 30.2153 66.0065 27.6315C66.0065 25.0477 63.9206 22.9531 61.3475 22.9531C58.7744 22.9531 56.6885 25.0477 56.6885 27.6315C56.6885 30.2153 58.7744 32.3099 61.3475 32.3099Z" fill="black"/>
<mask id="mask0_1505_41" style="mask-type:luminance" maskUnits="userSpaceOnUse" x="20" y="31" width="36" height="19">
<path d="M37.7558 49.648C28.4193 49.648 18.9356 44.5706 20.2863 36.6594C21.637 28.7482 30.9662 32.6599 37.7558 32.7027L37.793 32.7025L37.7931 32.6999L37.9377 32.7023L38.0819 32.6999L38.0818 32.7025L38.1192 32.7027C44.8409 32.6604 54.0517 28.8261 55.5458 36.4256L55.5887 36.6594C56.9393 44.5706 47.4556 49.648 38.1192 49.648L37.7929 49.647H38.0821L37.7558 49.648Z" fill="white"/>
</mask>
<g mask="url(#mask0_1505_41)">
<path d="M57.8092 28.6431H19.2061V49.6481H57.8092V28.6431Z" fill="black"/>
<path fill-rule="evenodd" clip-rule="evenodd" d="M33.9436 59.5777C38.3021 59.5777 41.8354 56.0724 41.8354 51.7485C41.8354 47.4246 38.3021 43.9194 33.9436 43.9194C29.5851 43.9194 26.0518 47.4246 26.0518 51.7485C26.0518 56.0724 29.5851 59.5777 33.9436 59.5777Z" fill="#F05984"/>
<path d="M31.9472 32.1611C31.9472 30.2181 30.3721 28.6431 28.4292 28.6431C26.4862 28.6431 24.9111 30.2181 24.9111 32.1611V33.1451C24.9111 35.0881 26.4862 36.6632 28.4292 36.6632C30.3721 36.6632 31.9472 35.0881 31.9472 33.1451V32.1611Z" fill="white"/>
<path d="M36.4155 28.6431H36.4155C34.4725 28.6431 32.8975 30.2181 32.8975 32.1611V33.1451C32.8975 35.0881 34.4725 36.6632 36.4155 36.6632H36.4155C38.3584 36.6632 39.9335 35.0881 39.9335 33.1451V32.1611C39.9335 30.2181 38.3584 28.6431 36.4155 28.6431Z" fill="white"/>
<path fill-rule="evenodd" clip-rule="evenodd" d="M41.9308 59.5777C46.2893 59.5777 49.8226 56.0724 49.8226 51.7485C49.8226 47.4246 46.2893 43.9194 41.9308 43.9194C37.5723 43.9194 34.0391 47.4246 34.0391 51.7485C34.0391 56.0724 37.5723 59.5777 41.9308 59.5777Z" fill="#F05984"/>
</g>
</svg>
