<svg width="28" height="28" viewBox="0 0 28 28" xmlns="http://www.w3.org/2000/svg">
<path d="M15.4376 20.372C15.8026 20.372 16.1096 20.265 16.4756 20.049L24.9836 15.052C25.6066 14.687 25.9216 14.238 25.9216 13.682C25.9216 13.118 25.6146 12.694 24.9836 12.321L16.4756 7.324C16.1096 7.108 15.7956 7 15.4296 7C14.6996 7 14.0926 7.556 14.0926 8.569V13.342C13.9846 12.943 13.6866 12.612 13.1886 12.321L4.67961 7.324C4.32261 7.108 4.00761 7 3.64261 7C2.91261 7 2.29761 7.556 2.29761 8.569V18.804C2.29761 19.817 2.91161 20.373 3.64261 20.373C4.00761 20.373 4.32261 20.265 4.67961 20.049L13.1886 15.052C13.6786 14.762 13.9846 14.421 14.0926 14.014V18.804C14.0926 19.817 14.7076 20.372 15.4376 20.372Z" fill="inherit"/>
</svg>
