<svg viewBox="0 0 25 25" fill="none" xmlns="http://www.w3.org/2000/svg">
<path d="M15 10.5C15 10.5 15.5 11.5 15.5 12.5C15.5 13.5 15 14.4935 15 14.4935M5.81875 15.625H4.16667C3.8904 15.625 3.62545 15.5153 3.4301 15.3199C3.23475 15.1246 3.125 14.8596 3.125 14.5834V10.4167C3.125 10.1404 3.23475 9.8755 3.4301 9.68014C3.62545 9.48479 3.8904 9.37505 4.16667 9.37505H5.81875L10.7219 4.47192C11.3781 3.81567 12.5 4.28026 12.5 5.20838V19.7917C12.5 20.7198 11.3781 21.1844 10.7219 20.5282L5.81875 15.625Z" stroke="inherit" stroke-width="1.8" stroke-linecap="round" stroke-linejoin="round"/>
</svg>
